# xmcd CD database file
#
# Track frame offsets:
#	150
#	15976
#	40071
#	62233
#	80351
#	89455
#	111339
#	128972
#	141953
#	165307
#	188510
#	203835
#	227586
#	247626
#	269609
#	282093
#	305938
#	313231
#
# Disc length: 4290 seconds
#
# Revision: 0
# Processed by: cddbd v1.5PL3 Copyright (c) Steve Scherf et al.
# Submitted via: CDex 1.51
#
DISCID=f510c012
DTITLE=Charlie Musselwhite - The Best of Charlie Musselwhite
DYEAR=1900
DGENRE=Blues
TTITLE0=Harpin On a Riff
TTITLE1=Blues got me Again
TTITLE2=Hear me talking
TTITLE3=Way i Feel
TTITLE4=Fast Life Blues
TTITLE5=It's Getting warm in Here
TTITLE6=Finger Licking Good
TTITLE7=Crazy for my Baby
TTITLE8=Yesterdays
TTITLE9=Hey Miss Bessie
TTITLE10=Run Here Mama
TTITLE11=Take me Back
TTITLE12=When it rains it pours
TTITLE13=Revelation
TTITLE14=Taylors Arkansas
TTITLE15=This old Nighlife
TTITLE16=Azul para Amparo
TTITLE17=Blues in the Dark
EXTD=
EXTT0=
EXTT1=
EXTT2=
EXTT3=
EXTT4=
EXTT5=
EXTT6=
EXTT7=
EXTT8=
EXTT9=
EXTT10=
EXTT11=
EXTT12=
EXTT13=
EXTT14=
EXTT15=
EXTT16=
EXTT17=
PLAYORDER=
